# xmcd
#
# Track frame offsets:
#	150
#	20187
#	37050
#	54167
#	69640
#	84390
#	101435
#	113030
#	128315
#	143415
#	159497
#	173625
#	187112
#
# Disc length: 2684 seconds
#
# Revision: 1
# Processed by: cddbd v1.5.2PL0 Copyright (c) Steve Scherf et al.
# Submitted via: EZCDAudioConverter 2.1.3.1
#
DISCID=a20a7a0d
DTITLE=Rickky Skaggs - Brand New Strings
DYEAR=2004
DGENRE=Bluegrass
TTITLE0=Sally Jo
TTITLE1=Sis Draper
TTITLE2=I Corinthians 1:18
TTITLE3=Enjoy The Ride
TTITLE4=Lonesome And Dry As A Bone
TTITLE5=Brand New Strings
TTITLE6=Spread A Little Love Around
TTITLE7=Appalachian Joy
TTITLE8=If I Had It All Again To Do
TTITLE9=Love Does It Every Time
TTITLE10=Why Did I Wait So Long?
TTITLE11=My Father's Son
TTITLE12=Monroe Dancin
EXTD=
EXTT0=
EXTT1=
EXTT2=
EXTT3=
EXTT4=
EXTT5=
EXTT6=
EXTT7=
EXTT8=
EXTT9=
EXTT10=
EXTT11=
EXTT12=
PLAYORDER=
